<svg xmlns="http://www.w3.org/2000/svg" viewBox="0 0 256 256" role="img" aria-label="Conductor favicon">
  <rect width="256" height="256" fill="none" />

  <!-- baton -->
  <path d="M178 94L226 34" stroke="#111827" stroke-width="8" stroke-linecap="round" />

  <!-- head -->
  <circle cx="128" cy="92" r="24" fill="#111827" />

  <!-- neck -->
  <rect x="121" y="112" width="14" height="10" rx="4" fill="#111827" />

  <!-- torso / jacket -->
  <path d="M78 146
           C90 130 108 120 128 120
           C148 120 166 130 178 146
           L190 206
           C170 214 148 218 128 218
           C108 218 86 214 66 206
           Z"
        fill="#111827" />

  <!-- left raised arm -->
  <path d="M78 148
           C58 152 44 166 42 186
           C40 202 48 216 60 218
           C69 220 76 214 78 206
           C80 196 78 184 75 172
           Z"
        fill="#111827" />

  <!-- right raised arm -->
  <path d="M178 148
           C198 152 212 166 214 186
           C216 202 208 216 196 218
           C187 220 180 214 178 206
           C176 196 178 184 181 172
           Z"
        fill="#111827" />

  <!-- left hand -->
  <path d="M36 168
           C33 158 39 149 48 147
           C56 145 62 149 64 157
           C66 165 61 174 53 176
           C45 178 38 176 36 168Z"
        fill="#111827" />

  <!-- right hand -->
  <path d="M196 146
           C196 137 203 130 212 130
           C220 130 226 136 226 144
           C226 152 220 158 212 158
           C204 158 198 154 196 146Z"
        fill="#111827" />
</svg>
