<svg xmlns="http://www.w3.org/2000/svg" viewBox="0 0 1024 1024" width="1024" height="1024">
<path d="M 738.0 472.5 L 756.5 432.0 L 752.5 408.0 L 745.5 400.0 L 826.5 274.0 L 835.5 258.0 L 834.0 255.5 L 790.5 312.0 L 731.5 399.0 L 728.0 402.5 L 724.0 399.5 L 715.0 401.5 L 702.0 409.5 L 694.5 420.0 L 691.5 437.0 L 691.5 458.0 L 693.5 466.0 L 702.0 463.5 L 717.0 463.5 L 728.0 466.5 L 738.0 472.5 Z " fill="black" fill-rule="evenodd"/>
<path d="M 539.0 474.5 L 547.5 452.0 L 555.0 449.5 L 560.5 444.0 L 566.5 426.0 L 566.5 414.0 L 562.5 406.0 L 564.5 397.0 L 564.5 376.0 L 560.5 361.0 L 549.0 345.5 L 522.0 327.5 L 499.0 322.5 L 475.0 326.5 L 458.0 336.5 L 447.5 348.0 L 440.5 360.0 L 436.5 376.0 L 438.5 406.0 L 433.5 415.0 L 433.5 426.0 L 436.5 437.0 L 444.0 448.5 L 453.5 452.0 L 461.0 472.5 L 486.0 463.5 L 508.0 462.5 L 524.0 466.5 L 539.0 474.5 Z " fill="black" fill-rule="evenodd"/>
<path d="M 223.0 465.5 L 244.0 457.5 L 258.0 457.5 L 268.5 461.0 L 272.5 444.0 L 272.5 420.0 L 276.5 406.0 L 276.5 399.0 L 274.0 396.5 L 269.0 396.5 L 256.5 409.0 L 256.5 396.0 L 261.5 381.0 L 261.5 375.0 L 257.0 370.5 L 248.0 375.5 L 237.5 387.0 L 215.5 419.0 L 214.5 426.0 L 221.5 462.0 L 223.0 465.5 Z " fill="black" fill-rule="evenodd"/>
<path d="M 476.0 755.5 L 555.0 753.5 L 585.0 748.5 L 618.5 737.0 L 617.5 700.0 L 633.0 617.5 L 672.0 625.5 L 707.0 629.5 L 724.0 627.5 L 735.5 618.0 L 743.5 601.0 L 752.5 554.0 L 759.5 503.0 L 758.5 494.0 L 754.0 488.5 L 738.0 478.5 L 720.0 472.5 L 701.0 471.5 L 694.0 473.5 L 690.5 477.0 L 687.5 486.0 L 684.5 536.0 L 689.0 541.5 L 702.0 550.5 L 704.0 553.5 L 668.0 534.5 L 634.0 507.5 L 560.0 496.5 L 557.0 495.5 L 545.0 482.5 L 533.0 476.5 L 508.0 471.5 L 490.0 471.5 L 462.0 477.5 L 450.0 484.5 L 442.5 494.0 L 438.0 496.5 L 417.0 500.5 L 355.0 507.5 L 323.0 532.5 L 270.0 557.5 L 286.5 543.0 L 286.5 538.0 L 269.5 470.0 L 259.0 465.5 L 239.0 467.5 L 218.0 476.5 L 204.5 488.0 L 204.5 496.0 L 211.5 532.0 L 226.5 589.0 L 233.5 609.0 L 239.5 620.0 L 244.0 624.5 L 258.0 629.5 L 277.0 629.5 L 318.0 625.5 L 366.0 617.5 L 372.5 636.0 L 387.5 696.0 L 387.0 737.5 L 418.0 747.5 L 454.0 753.5 L 476.0 755.5 Z " fill="black" fill-rule="evenodd"/>
</svg>