<svg xmlns="http://www.w3.org/2000/svg" viewBox="0 0 256 256" role="img" aria-label="Goat favicon">
  <defs>
    <radialGradient id="bg" cx="68%" cy="30%" r="78%">
      <stop offset="0%" stop-color="#3ab7ff"/>
      <stop offset="100%" stop-color="#147fca"/>
    </radialGradient>
  </defs>

  <circle cx="128" cy="128" r="118" fill="url(#bg)"/>

  <!-- ridge -->
  <path d="M56 196L78 170L102 166L114 150L132 142L148 146L168 142L184 154L198 168L198 192L56 196Z" fill="#0a0a0a"/>

  <!-- goat silhouette -->
  <path d="M86 156
           C84 149 82 142 82 134
           C82 123 86 112 92 102
           C90 95 92 89 98 86
           C108 81 120 83 129 90
           C134 82 141 77 150 76
           C164 74 175 82 179 95
           C170 91 161 93 154 99
           C164 101 172 109 175 119
           C165 113 155 114 147 121
           C140 127 132 131 122 132
           C124 137 128 142 135 144
           C148 148 160 154 168 165
           C172 171 173 178 171 186
           C169 182 164 179 160 179
           C161 190 158 201 152 210
           C150 213 149 218 149 224
           L136 224
           C136 218 137 212 139 206
           C126 201 118 191 113 180
           C112 192 109 203 103 214
           L91 214
           C96 204 99 194 100 184
           C92 177 88 167 86 156Z" fill="#050505"/>

  <!-- horns -->
  <path d="M105 92
           C96 86 85 89 81 98
           C78 105 79 113 84 118
           C84 109 88 102 95 99
           C102 96 108 95 113 98
           C111 95 109 93 105 92Z" fill="#050505"/>
  <path d="M140 88
           C151 78 166 80 174 93
           C178 100 178 108 174 114
           C172 104 166 98 157 97
           C150 97 143 100 138 106
           C136 100 137 93 140 88Z" fill="#050505"/>

  <!-- beard -->
  <path d="M95 136L99 150L104 137L107 151L113 140" fill="#050505"/>
</svg>
